<svg width="207" height="55" viewBox="0 0 207 55" fill="none" xmlns="http://www.w3.org/2000/svg">
<path d="M194.114 33.9755C191.001 33.9755 188.291 33.4925 185.983 32.5264C183.702 31.5602 181.944 30.2318 180.709 28.5411C179.475 26.8503 178.858 24.9315 178.858 22.7845C178.858 21.067 179.233 19.5239 179.985 18.1552C180.736 16.7597 181.769 15.5788 183.084 14.6127C184.399 13.6466 185.902 12.9086 187.593 12.3987C189.311 11.8619 191.109 11.5936 192.987 11.5936C194.973 11.5936 196.798 11.8619 198.462 12.3987C200.153 12.9354 201.615 13.7002 202.85 14.6932C204.111 15.6862 205.077 16.867 205.748 18.2357C206.446 19.6044 206.768 21.1207 206.714 22.7845L206.674 24.596H184.171L183.245 20.0472H200.193L199.428 21.4561V20.7315C199.374 20.1679 199.052 19.6715 198.462 19.2421C197.898 18.7858 197.147 18.4235 196.208 18.1552C195.295 17.8868 194.275 17.7526 193.148 17.7526C191.967 17.7526 190.854 17.9136 189.807 18.2357C188.76 18.5309 187.915 19.0005 187.271 19.6446C186.627 20.2887 186.305 21.1207 186.305 22.1405C186.305 23.1066 186.667 23.9922 187.392 24.7973C188.116 25.6024 189.163 26.2599 190.532 26.7698C191.9 27.2529 193.537 27.4944 195.443 27.4944C197.375 27.4944 198.905 27.32 200.032 26.9711C201.159 26.6222 201.937 26.3539 202.367 26.166L205.829 31.0369C204.675 31.7078 203.467 32.2714 202.206 32.7276C200.971 33.157 199.683 33.4656 198.341 33.6535C196.999 33.8682 195.59 33.9755 194.114 33.9755Z" fill="#D72323"/>
<path d="M149.08 28.7423L145.739 23.6702L160.432 12.0364H171.261L149.08 28.7423ZM141.753 33.573V3.78401H149.523V33.573H141.753ZM161.237 33.573L151.052 21.0536L156.567 16.9475L170.576 33.573H161.237Z" fill="#D72323"/>
<path d="M116.921 33.573V12.0364H125.092V33.573H116.921ZM121.027 7.72904C119.577 7.72904 118.437 7.39357 117.605 6.72265C116.8 6.05173 116.397 5.09902 116.397 3.86452C116.397 2.73737 116.813 1.81149 117.645 1.0869C118.477 0.362299 119.604 0 121.027 0C122.476 0 123.603 0.335462 124.408 1.00639C125.24 1.67731 125.656 2.63002 125.656 3.86452C125.656 4.99167 125.24 5.91754 124.408 6.64214C123.576 7.36674 122.449 7.72904 121.027 7.72904Z" fill="#D72323"/>
<path d="M73.5133 33.573V5.39422H90.0985C92.6748 5.39422 94.8486 5.67601 96.6199 6.23959C98.3911 6.80316 99.7329 7.59485 100.645 8.61465C101.558 9.63446 102.014 10.8287 102.014 12.1974C102.014 13.8344 101.558 15.2165 100.645 16.3437C99.7329 17.444 98.3374 18.2089 96.4588 18.6382L96.6199 17.9136C97.8007 18.182 98.9144 18.6114 99.961 19.2018C101.008 19.7654 101.853 20.5168 102.497 21.4561C103.168 22.3686 103.504 23.5091 103.504 24.8778C103.504 26.6491 103.114 28.0983 102.336 29.2254C101.558 30.3526 100.538 31.2382 99.2767 31.8823C98.0422 32.4995 96.7004 32.9423 95.2512 33.2107C93.8288 33.4522 92.4601 33.573 91.1451 33.573H73.5133ZM81.5643 26.7296H91.3061C92.0039 26.7296 92.6346 26.6491 93.1981 26.488C93.7617 26.327 94.2045 26.0721 94.5266 25.7232C94.8754 25.3743 95.0499 24.9181 95.0499 24.3545C95.0499 23.6836 94.8218 23.1871 94.3655 22.8651C93.9093 22.543 93.3726 22.3283 92.7553 22.221C92.1381 22.0868 91.5879 22.0197 91.1049 22.0197H81.5643V26.7296ZM81.5643 16.1827H89.6557C90.4608 16.1827 91.1451 16.1156 91.7087 15.9814C92.2991 15.8204 92.7419 15.5923 93.0371 15.297C93.3592 15.0018 93.5202 14.6127 93.5202 14.1296C93.5202 13.4319 93.1445 12.9488 92.393 12.6804C91.6416 12.3852 90.7023 12.2376 89.5752 12.2376H81.5643V16.1827Z" fill="#D72323"/>
<path d="M49.132 33.9755C46.0189 33.9755 43.3084 33.4925 41.0004 32.5264C38.7193 31.5602 36.9615 30.2318 35.727 28.5411C34.4925 26.8503 33.8752 24.9315 33.8752 22.7845C33.8752 21.067 34.2509 19.5239 35.0024 18.1552C35.7538 16.7597 36.787 15.5788 38.102 14.6127C39.417 13.6466 40.9199 12.9086 42.6106 12.3987C44.3282 11.8619 46.1263 11.5936 48.0049 11.5936C49.9908 11.5936 51.8157 11.8619 53.4796 12.3987C55.1703 12.9354 56.6329 13.7002 57.8674 14.6932C59.1288 15.6862 60.0949 16.867 60.7658 18.2357C61.4636 19.6044 61.7856 21.1207 61.7319 22.7845L61.6917 24.596H39.1889L38.2631 20.0472H55.2106L54.4457 21.4561V20.7315C54.392 20.1679 54.07 19.6715 53.4796 19.2421C52.916 18.7858 52.1646 18.4235 51.2253 18.1552C50.3128 17.8868 49.293 17.7526 48.1659 17.7526C46.9851 17.7526 45.8713 17.9136 44.8247 18.2357C43.778 18.5309 42.9327 19.0005 42.2886 19.6446C41.6445 20.2887 41.3225 21.1207 41.3225 22.1405C41.3225 23.1066 41.6848 23.9922 42.4094 24.7973C43.134 25.6024 44.1806 26.2599 45.5493 26.7698C46.918 27.2529 48.555 27.4944 50.4604 27.4944C52.3927 27.4944 53.9224 27.32 55.0495 26.9711C56.1767 26.6222 56.955 26.3539 57.3844 26.166L60.8463 31.0369C59.6923 31.7078 58.4847 32.2714 57.2233 32.7276C55.9888 33.157 54.7007 33.4656 53.3588 33.6535C52.017 33.8682 50.608 33.9755 49.132 33.9755Z" fill="#D72323"/>
<path d="M0 33.573V5.39422H8.69516V26.166H26.4075V33.573H0Z" fill="#D72323"/>
<path d="M200.201 54.3155C199.268 54.3155 198.394 54.2155 197.581 54.0155C196.768 53.8155 196.014 53.5222 195.321 53.1355C194.628 52.7355 194.001 52.2355 193.441 51.6355L194.401 50.3355C195.241 51.2155 196.141 51.8555 197.101 52.2555C198.061 52.6555 199.094 52.8555 200.201 52.8555C201.081 52.8555 201.881 52.7555 202.601 52.5555C203.321 52.3422 203.901 52.0289 204.341 51.6155C204.781 51.2022 204.994 50.7022 204.981 50.1155C204.981 49.7155 204.861 49.3889 204.621 49.1355C204.381 48.8822 204.068 48.6755 203.681 48.5155C203.308 48.3555 202.894 48.2355 202.441 48.1555C201.988 48.0622 201.554 47.9955 201.141 47.9555C200.728 47.9022 200.368 47.8555 200.061 47.8155C199.248 47.6955 198.481 47.5555 197.761 47.3955C197.041 47.2355 196.408 47.0155 195.861 46.7355C195.314 46.4555 194.888 46.0955 194.581 45.6555C194.274 45.2022 194.121 44.6422 194.121 43.9755C194.121 43.3355 194.268 42.7689 194.561 42.2755C194.868 41.7822 195.294 41.3622 195.841 41.0155C196.388 40.6689 197.021 40.4089 197.741 40.2355C198.474 40.0622 199.261 39.9755 200.101 39.9755C201.008 39.9755 201.828 40.0755 202.561 40.2755C203.308 40.4622 203.974 40.7422 204.561 41.1155C205.161 41.4755 205.668 41.9222 206.081 42.4555L205.061 43.6155C204.661 43.1489 204.201 42.7555 203.681 42.4355C203.174 42.1022 202.614 41.8489 202.001 41.6755C201.401 41.5022 200.761 41.4155 200.081 41.4155C199.281 41.4155 198.561 41.5155 197.921 41.7155C197.281 41.9155 196.768 42.1889 196.381 42.5355C196.008 42.8822 195.821 43.3022 195.821 43.7955C195.821 44.2489 195.948 44.6222 196.201 44.9155C196.454 45.2089 196.801 45.4422 197.241 45.6155C197.694 45.7889 198.214 45.9289 198.801 46.0355C199.388 46.1289 200.021 46.2222 200.701 46.3155C201.408 46.3955 202.108 46.5022 202.801 46.6355C203.508 46.7689 204.154 46.9622 204.741 47.2155C205.328 47.4555 205.794 47.7955 206.141 48.2355C206.501 48.6755 206.681 49.2689 206.681 50.0155C206.681 50.8689 206.414 51.6222 205.881 52.2755C205.348 52.9155 204.594 53.4155 203.621 53.7755C202.661 54.1355 201.521 54.3155 200.201 54.3155Z" fill="#F5EDED"/>
<path d="M176.417 54.1155V40.1155H187.697V41.6355H177.977V52.5955H187.657V54.1155H176.417ZM177.257 47.6755V46.1555H186.577V47.6755H177.257Z" fill="#F5EDED"/>
<path d="M159.796 54.1155V40.1155H161.356V52.5955H170.876V54.1155H159.796Z" fill="#F5EDED"/>
<path d="M147.425 54.3155C146.238 54.3155 145.138 54.1422 144.125 53.7955C143.112 53.4355 142.225 52.9355 141.465 52.2955C140.718 51.6555 140.132 50.8955 139.705 50.0155C139.292 49.1222 139.085 48.1489 139.085 47.0955C139.085 46.0689 139.292 45.1289 139.705 44.2755C140.132 43.4089 140.718 42.6555 141.465 42.0155C142.212 41.3755 143.085 40.8822 144.085 40.5355C145.085 40.1889 146.158 40.0155 147.305 40.0155C148.158 40.0155 148.985 40.1289 149.785 40.3555C150.585 40.5689 151.318 40.8555 151.985 41.2155C152.665 41.5622 153.212 41.9422 153.625 42.3555L152.705 43.7355C152.292 43.3089 151.798 42.9355 151.225 42.6155C150.652 42.2822 150.018 42.0222 149.325 41.8355C148.645 41.6355 147.925 41.5355 147.165 41.5355C146.298 41.5355 145.472 41.6689 144.685 41.9355C143.912 42.2022 143.225 42.5822 142.625 43.0755C142.025 43.5689 141.552 44.1555 141.205 44.8355C140.872 45.5155 140.705 46.2689 140.705 47.0955C140.705 47.9755 140.878 48.7689 141.225 49.4755C141.585 50.1689 142.078 50.7622 142.705 51.2555C143.332 51.7489 144.052 52.1289 144.865 52.3955C145.678 52.6622 146.552 52.7955 147.485 52.7955C148.272 52.7955 148.992 52.6955 149.645 52.4955C150.312 52.2955 150.905 52.0355 151.425 51.7155C151.958 51.3822 152.412 51.0489 152.785 50.7155L153.525 52.0555C153.152 52.4022 152.645 52.7555 152.005 53.1155C151.365 53.4622 150.658 53.7489 149.885 53.9755C149.112 54.2022 148.292 54.3155 147.425 54.3155Z" fill="#F5EDED"/>
<path d="M127.182 54.1155V48.0355L127.482 49.2555L120.062 40.1155H122.222L128.142 47.6355H127.782L133.502 40.1155H135.442L128.562 48.9955L128.722 47.8755V54.1155H127.182Z" fill="#F5EDED"/>
<path d="M109.671 54.3155C108.485 54.3155 107.385 54.1422 106.371 53.7955C105.358 53.4355 104.471 52.9355 103.711 52.2955C102.965 51.6555 102.378 50.8955 101.951 50.0155C101.538 49.1222 101.331 48.1489 101.331 47.0955C101.331 46.0689 101.538 45.1289 101.951 44.2755C102.378 43.4089 102.965 42.6555 103.711 42.0155C104.458 41.3755 105.331 40.8822 106.331 40.5355C107.331 40.1889 108.405 40.0155 109.551 40.0155C110.405 40.0155 111.231 40.1289 112.031 40.3555C112.831 40.5689 113.565 40.8555 114.231 41.2155C114.911 41.5622 115.458 41.9422 115.871 42.3555L114.951 43.7355C114.538 43.3089 114.045 42.9355 113.471 42.6155C112.898 42.2822 112.265 42.0222 111.571 41.8355C110.891 41.6355 110.171 41.5355 109.411 41.5355C108.545 41.5355 107.718 41.6689 106.931 41.9355C106.158 42.2022 105.471 42.5822 104.871 43.0755C104.271 43.5689 103.798 44.1555 103.451 44.8355C103.118 45.5155 102.951 46.2689 102.951 47.0955C102.951 47.9755 103.125 48.7689 103.471 49.4755C103.831 50.1689 104.325 50.7622 104.951 51.2555C105.578 51.7489 106.298 52.1289 107.111 52.3955C107.925 52.6622 108.798 52.7955 109.731 52.7955C110.518 52.7955 111.238 52.6955 111.891 52.4955C112.558 52.2955 113.151 52.0355 113.671 51.7155C114.205 51.3822 114.658 51.0489 115.031 50.7155L115.771 52.0555C115.398 52.4022 114.891 52.7555 114.251 53.1155C113.611 53.4622 112.905 53.7489 112.131 53.9755C111.358 54.2022 110.538 54.3155 109.671 54.3155Z" fill="#F5EDED"/>
<path d="M83.1748 54.1155V40.1155H90.8748C91.7148 40.1155 92.4682 40.3022 93.1348 40.6755C93.8148 41.0489 94.3548 41.5555 94.7548 42.1955C95.1548 42.8222 95.3548 43.5222 95.3548 44.2955C95.3548 45.1622 95.1415 45.9289 94.7148 46.5955C94.2882 47.2489 93.7082 47.7622 92.9748 48.1355C92.2548 48.5089 91.4415 48.6955 90.5348 48.6955H84.7348V54.1155H83.1748ZM94.2348 54.1155L89.5148 47.9555L91.0948 47.4755L96.1748 54.1155H94.2348ZM84.7348 47.1755H90.3348C90.9748 47.1755 91.5482 47.0489 92.0548 46.7955C92.5615 46.5422 92.9615 46.2022 93.2548 45.7755C93.5482 45.3489 93.6948 44.8689 93.6948 44.3355C93.6948 43.8289 93.5482 43.3755 93.2548 42.9755C92.9615 42.5622 92.5682 42.2355 92.0748 41.9955C91.5815 41.7555 91.0348 41.6355 90.4348 41.6355H84.7348V47.1755Z" fill="#F5EDED"/>
<path d="M68.3655 54.3155C67.1255 54.3155 65.9855 54.1355 64.9455 53.7755C63.9188 53.4022 63.0255 52.8955 62.2655 52.2555C61.5188 51.6022 60.9388 50.8422 60.5255 49.9755C60.1121 49.0955 59.9055 48.1555 59.9055 47.1555C59.9055 46.1422 60.1121 45.2022 60.5255 44.3355C60.9388 43.4689 61.5188 42.7089 62.2655 42.0555C63.0255 41.3889 63.9188 40.8755 64.9455 40.5155C65.9855 40.1555 67.1255 39.9755 68.3655 39.9755C69.6055 39.9755 70.7388 40.1555 71.7655 40.5155C72.7921 40.8755 73.6855 41.3822 74.4455 42.0355C75.2055 42.6889 75.7921 43.4555 76.2055 44.3355C76.6321 45.2022 76.8455 46.1422 76.8455 47.1555C76.8455 48.1555 76.6321 49.0955 76.2055 49.9755C75.7921 50.8422 75.2055 51.6022 74.4455 52.2555C73.6855 52.9089 72.7921 53.4155 71.7655 53.7755C70.7388 54.1355 69.6055 54.3155 68.3655 54.3155ZM68.3655 52.7755C69.3655 52.7755 70.2855 52.6355 71.1255 52.3555C71.9655 52.0755 72.6921 51.6822 73.3055 51.1755C73.9188 50.6555 74.3921 50.0555 74.7255 49.3755C75.0588 48.6955 75.2255 47.9555 75.2255 47.1555C75.2255 46.3555 75.0588 45.6089 74.7255 44.9155C74.3921 44.2222 73.9188 43.6222 73.3055 43.1155C72.6921 42.6089 71.9655 42.2155 71.1255 41.9355C70.2855 41.6422 69.3655 41.4955 68.3655 41.4955C67.3521 41.4955 66.4255 41.6422 65.5855 41.9355C64.7455 42.2155 64.0188 42.6089 63.4055 43.1155C62.8055 43.6222 62.3388 44.2222 62.0055 44.9155C61.6855 45.6089 61.5255 46.3555 61.5255 47.1555C61.5255 47.9555 61.6855 48.6955 62.0055 49.3755C62.3388 50.0555 62.8055 50.6555 63.4055 51.1755C64.0188 51.6822 64.7455 52.0755 65.5855 52.3555C66.4255 52.6355 67.3521 52.7755 68.3655 52.7755Z" fill="#F5EDED"/>
<path d="M48.9223 54.1155V41.6355H43.5223V40.1155H56.0423V41.6355H50.4823V54.1155H48.9223Z" fill="#F5EDED"/>
<path d="M31.1584 54.3155C29.9184 54.3155 28.7784 54.1355 27.7384 53.7755C26.7118 53.4022 25.8184 52.8955 25.0584 52.2555C24.3118 51.6022 23.7318 50.8422 23.3184 49.9755C22.9051 49.0955 22.6984 48.1555 22.6984 47.1555C22.6984 46.1422 22.9051 45.2022 23.3184 44.3355C23.7318 43.4689 24.3118 42.7089 25.0584 42.0555C25.8184 41.3889 26.7118 40.8755 27.7384 40.5155C28.7784 40.1555 29.9184 39.9755 31.1584 39.9755C32.3984 39.9755 33.5318 40.1555 34.5584 40.5155C35.5851 40.8755 36.4784 41.3822 37.2384 42.0355C37.9984 42.6889 38.5851 43.4555 38.9984 44.3355C39.4251 45.2022 39.6384 46.1422 39.6384 47.1555C39.6384 48.1555 39.4251 49.0955 38.9984 49.9755C38.5851 50.8422 37.9984 51.6022 37.2384 52.2555C36.4784 52.9089 35.5851 53.4155 34.5584 53.7755C33.5318 54.1355 32.3984 54.3155 31.1584 54.3155ZM31.1584 52.7755C32.1584 52.7755 33.0784 52.6355 33.9184 52.3555C34.7584 52.0755 35.4851 51.6822 36.0984 51.1755C36.7118 50.6555 37.1851 50.0555 37.5184 49.3755C37.8518 48.6955 38.0184 47.9555 38.0184 47.1555C38.0184 46.3555 37.8518 45.6089 37.5184 44.9155C37.1851 44.2222 36.7118 43.6222 36.0984 43.1155C35.4851 42.6089 34.7584 42.2155 33.9184 41.9355C33.0784 41.6422 32.1584 41.4955 31.1584 41.4955C30.1451 41.4955 29.2184 41.6422 28.3784 41.9355C27.5384 42.2155 26.8118 42.6089 26.1984 43.1155C25.5984 43.6222 25.1318 44.2222 24.7984 44.9155C24.4784 45.6089 24.3184 46.3555 24.3184 47.1555C24.3184 47.9555 24.4784 48.6955 24.7984 49.3755C25.1318 50.0555 25.5984 50.6555 26.1984 51.1755C26.8118 51.6822 27.5384 52.0755 28.3784 52.3555C29.2184 52.6355 30.1451 52.7755 31.1584 52.7755Z" fill="#F5EDED"/>
<path d="M0.460007 54.1155V40.1155H2.00001L8.72001 48.5755H8.12001L14.86 40.1155H16.38V54.1155H14.82V47.5955C14.8067 46.4489 14.82 45.3955 14.86 44.4355C14.9 43.4622 14.98 42.4822 15.1 41.4955L15.32 42.0555L8.94001 49.9555H7.86001L1.50001 42.0555L1.74001 41.4955C1.86001 42.4555 1.94001 43.4222 1.98001 44.3955C2.02001 45.3555 2.04001 46.4222 2.04001 47.5955L2.02001 54.1155H0.460007Z" fill="#F5EDED"/>
</svg>
